<svg width="12" height="12" viewBox="0 0 12 12" fill="none" xmlns="http://www.w3.org/2000/svg">
<path d="M7 10.625H5V11.375H7V10.625ZM1.375 6.99999V4.99999H0.625V6.99999H1.375ZM10.625 6.78144V6.99999H11.375V6.78144H10.625ZM7.4456 2.30555L9.425 4.087L9.9267 3.52953L7.94735 1.74808L7.4456 2.30555ZM11.375 6.78144C11.375 5.93724 11.3826 5.40274 11.1695 4.92448L10.4845 5.22959C10.6175 5.52824 10.625 5.87099 10.625 6.78144H11.375ZM9.425 4.087C10.1017 4.69604 10.3514 4.93099 10.4845 5.22959L11.1695 4.92448C10.9565 4.4462 10.5542 4.09426 9.9267 3.52953L9.425 4.087ZM5.0149 1.37499C5.8058 1.37499 6.10425 1.38078 6.37025 1.48286L6.63895 0.782645C6.21305 0.619205 5.749 0.624995 5.0149 0.624995V1.37499ZM7.94735 1.74808C7.40435 1.25938 7.06485 0.946065 6.63895 0.782645L6.37025 1.48286C6.63635 1.58496 6.86075 1.77918 7.4456 2.30555L7.94735 1.74808ZM5 10.625C4.04659 10.625 3.36926 10.6242 2.85543 10.5551C2.35238 10.4875 2.06256 10.3606 1.85095 10.149L1.32062 10.6794C1.69481 11.0535 2.16928 11.2196 2.75549 11.2984C3.33091 11.3758 4.06779 11.375 5 11.375V10.625ZM0.625 6.99999C0.625 7.93219 0.624205 8.6691 0.701565 9.2445C0.78038 9.8307 0.94644 10.3052 1.32062 10.6794L1.85095 10.149C1.63935 9.93744 1.51251 9.6476 1.44488 9.1446C1.3758 8.63074 1.375 7.95339 1.375 6.99999H0.625ZM7 11.375C7.9322 11.375 8.6691 11.3758 9.2445 11.2984C9.8307 11.2196 10.3052 11.0535 10.6794 10.6794L10.149 10.149C9.93745 10.3606 9.6476 10.4875 9.1446 10.5551C8.63075 10.6242 7.9534 10.625 7 10.625V11.375ZM10.625 6.99999C10.625 7.95339 10.6242 8.63074 10.5551 9.1446C10.4875 9.6476 10.3607 9.93744 10.149 10.149L10.6794 10.6794C11.0536 10.3052 11.2196 9.8307 11.2985 9.2445C11.3758 8.6691 11.375 7.93219 11.375 6.99999H10.625ZM1.375 4.99999C1.375 4.04658 1.3758 3.36925 1.44488 2.85542C1.51251 2.35237 1.63935 2.06255 1.85095 1.85094L1.32062 1.32061C0.94644 1.6948 0.78038 2.16927 0.701565 2.75548C0.624205 3.3309 0.625 4.06778 0.625 4.99999H1.375ZM5.0149 0.624995C4.07769 0.624995 3.33721 0.624205 2.75944 0.70153C2.17116 0.780265 1.6951 0.946145 1.32062 1.32061L1.85095 1.85094C2.06227 1.63963 2.35298 1.51262 2.85893 1.4449C3.37538 1.37578 4.05656 1.37499 5.0149 1.37499V0.624995Z" fill="#4D4D4D"/>
<path d="M3 7.25H7" stroke="#4D4D4D" stroke-linecap="round"/>
<path d="M3 9H5.75" stroke="#4D4D4D" stroke-linecap="round"/>
<path d="M6.5 1.25V2.5C6.5 3.67851 6.5 4.26776 6.8661 4.63388C7.23225 5 7.8215 5 9 5H11" stroke="#4D4D4D"/>
</svg>
