<svg width="20" height="20" viewBox="0 0 20 20" fill="none" xmlns="http://www.w3.org/2000/svg">
<path d="M2.5 18.3334V10C2.5 8.42869 2.5 7.643 2.98816 7.15485C3.47631 6.66669 4.26198 6.66669 5.83333 6.66669C7.40468 6.66669 8.19036 6.66669 8.6785 7.15485C9.16667 7.643 9.16667 8.42869 9.16667 10" stroke="#4D4D4D" stroke-width="1.5"/>
<path d="M14.1666 18.3333V13.3333C14.1666 11.762 14.1666 10.9763 13.6784 10.4882C13.1903 10 12.4046 10 10.8333 10H9.16659C7.59524 10 6.80956 10 6.32141 10.4882C5.83325 10.9763 5.83325 11.762 5.83325 13.3333V18.3333" stroke="#4D4D4D" stroke-width="1.5"/>
<path d="M17.4999 18.3332V6.47661C17.4999 5.35923 17.4999 4.80055 17.2032 4.37228C16.9063 3.94401 16.3833 3.74784 15.337 3.35551C13.2909 2.58824 12.2679 2.20461 11.5506 2.70173C10.8333 3.19885 10.8333 4.29143 10.8333 6.47661V9.9999" stroke="#4D4D4D" stroke-width="1.5"/>
<path d="M3.33325 6.66667V5.41667C3.33325 4.63099 3.33325 4.23816 3.57733 3.99408C3.82141 3.75 4.21424 3.75 4.99992 3.75H6.66659C7.45226 3.75 7.84509 3.75 8.08918 3.99408C8.33325 4.23816 8.33325 4.63099 8.33325 5.41667V6.66667" stroke="#4D4D4D" stroke-width="1.5" stroke-linecap="round"/>
<path d="M5.83325 3.33335V1.66669" stroke="#4D4D4D" stroke-width="1.5" stroke-linecap="round"/>
<path d="M18.3334 18.3333H1.66675" stroke="#4D4D4D" stroke-width="1.5" stroke-linecap="round"/>
<path d="M8.33325 12.5H11.6666" stroke="#4D4D4D" stroke-width="1.5" stroke-linecap="round"/>
<path d="M8.33325 15H11.6666" stroke="#4D4D4D" stroke-width="1.5" stroke-linecap="round"/>
</svg>
