<svg width="14" height="14" viewBox="0 0 14 14" fill="none" xmlns="http://www.w3.org/2000/svg">
<path d="M8.63711 2.4314L11.7686 5.56284M1.19995 13H4.33139L12.5514 4.77998C12.757 4.57437 12.9201 4.33027 13.0314 4.06162C13.1427 3.79297 13.2 3.50504 13.2 3.21426C13.2 2.92348 13.1427 2.63555 13.0314 2.3669C12.9201 2.09825 12.757 1.85416 12.5514 1.64854C12.3458 1.44293 12.1017 1.27983 11.8331 1.16855C11.5644 1.05727 11.2765 1 10.9857 1C10.6949 1 10.407 1.05727 10.1383 1.16855C9.86968 1.27983 9.62559 1.44293 9.41997 1.64854L1.19995 9.86856V13Z" stroke="#4D4D4D" stroke-linecap="round" stroke-linejoin="round"/>
</svg>
