<svg width="13" height="14" viewBox="0 0 13 14" fill="none" xmlns="http://www.w3.org/2000/svg">
<path d="M1.19995 3.66667H12.2M5.32495 6.33333V10.3333M8.07495 6.33333V10.3333M1.88745 3.66667L2.57495 11.6667C2.57495 12.0203 2.71982 12.3594 2.97768 12.6095C3.23554 12.8595 3.58528 13 3.94995 13H9.44995C9.81462 13 10.1644 12.8595 10.4222 12.6095C10.6801 12.3594 10.825 12.0203 10.825 11.6667L11.5125 3.66667M4.63745 3.66667V1.66667C4.63745 1.48986 4.70988 1.32029 4.83882 1.19526C4.96775 1.07024 5.14261 1 5.32495 1H8.07495C8.25729 1 8.43216 1.07024 8.56109 1.19526C8.69002 1.32029 8.76245 1.48986 8.76245 1.66667V3.66667" stroke="#D1211B" stroke-linecap="round" stroke-linejoin="round"/>
</svg>
