<svg width="12" height="12" viewBox="0 0 12 12" fill="none" xmlns="http://www.w3.org/2000/svg">
<g clip-path="url(#clip0_703_1898)">
<path d="M1 7C1 5.1144 1 4.17157 1.58579 3.58578C2.17158 3 3.11438 3 5 3H7C8.8856 3 9.82845 3 10.4142 3.58578C11 4.17157 11 5.1144 11 7C11 8.8856 11 9.82845 10.4142 10.4142C9.82845 11 8.8856 11 7 11H5C3.11438 11 2.17158 11 1.58579 10.4142C1 9.82845 1 8.8856 1 7Z" stroke="#4D4D4D"/>
<path d="M10.8311 4.35986C9.32619 5.33805 8.57374 5.82715 7.78049 6.0736C6.62104 6.43385 5.37954 6.43385 4.22006 6.0736C3.42681 5.82715 2.67435 5.33805 1.16943 4.35986" stroke="#4D4D4D" stroke-linecap="round"/>
<path d="M4 5.5V6.5" stroke="#4D4D4D" stroke-linecap="round"/>
<path d="M8 5.5V6.5" stroke="#4D4D4D" stroke-linecap="round"/>
<path d="M4.58545 2C4.79136 1.41741 5.347 1 6.0001 1C6.6532 1 7.20885 1.41741 7.41475 2" stroke="#4D4D4D" stroke-linecap="round"/>
</g>
<defs>
<clipPath id="clip0_703_1898">
<rect width="12" height="12" fill="white"/>
</clipPath>
</defs>
</svg>
