<svg width="20" height="20" viewBox="0 0 20 20" fill="none" xmlns="http://www.w3.org/2000/svg">
<path d="M8.15235 2.91637C9.3365 2.36121 10.6636 2.36121 11.8477 2.91637L17.4237 5.53053C18.6367 6.09916 18.6367 8.06754 17.4237 8.63617L11.8478 11.2503C10.6637 11.8054 9.33658 11.8054 8.15242 11.2503L2.57641 8.63617C1.36352 8.06751 1.36353 6.09912 2.57641 5.53049L8.15235 2.91637Z" stroke="#4D4D4D" stroke-width="1.5"/>
<path d="M1.66675 7.08331V11.6666" stroke="#4D4D4D" stroke-width="1.5" stroke-linecap="round"/>
<path d="M15.8334 9.58331V13.8545C15.8334 14.6945 15.4138 15.481 14.679 15.888C13.4553 16.5656 11.4967 17.5 10.0001 17.5C8.50341 17.5 6.54483 16.5656 5.32119 15.888C4.58633 15.481 4.16675 14.6945 4.16675 13.8545V9.58331" stroke="#4D4D4D" stroke-width="1.5" stroke-linecap="round"/>
</svg>
