<svg width="30" height="30" viewBox="0 0 30 30" fill="none" xmlns="http://www.w3.org/2000/svg">
<path fill-rule="evenodd" clip-rule="evenodd" d="M2.1967 2.1967C-1.78814e-07 4.39339 0 7.92893 0 15C0 22.071 -1.78814e-07 25.6066 2.1967 27.8032C4.39339 30 7.92893 30 15 30C22.071 30 25.6066 30 27.8032 27.8032C30 25.6066 30 22.071 30 15C30 7.92893 30 4.39339 27.8032 2.1967C25.6066 -1.78814e-07 22.071 0 15 0C7.92893 0 4.39339 -1.78814e-07 2.1967 2.1967ZM21 12C22.6569 12 24 10.6569 24 9C24 7.34314 22.6569 6 21 6C19.3431 6 18 7.34314 18 9C18 10.6569 19.3431 12 21 12ZM6.48138 16.6557C7.41751 15.7861 8.87987 15.8349 9.75595 16.7649L13.7272 20.9804C14.9263 22.2534 16.8894 22.4249 18.2912 21.3791C19.211 20.693 20.4915 20.771 21.3211 21.5635L24.7228 24.8134C25.1721 25.2426 25.8843 25.2264 26.3134 24.7772C26.7426 24.3279 26.7264 23.6157 26.2772 23.1866L22.8755 19.9366C21.2519 18.3855 18.7457 18.233 16.9458 19.5756C16.4603 19.9378 15.7803 19.8785 15.365 19.4376L11.3937 15.2221C9.66976 13.3921 6.79224 13.2961 4.95015 15.007L3.7344 16.1362C3.27915 16.5591 3.25287 17.2708 3.6757 17.7261C4.09854 18.1814 4.81036 18.2078 5.26561 17.7849L6.48138 16.6557Z" fill="#313131"/>
</svg>
