<svg width="20" height="20" viewBox="0 0 20 20" fill="none" xmlns="http://www.w3.org/2000/svg">
<path d="M6.66675 10.8333H13.3334M6.66675 10.8333V15C6.66675 16.5713 6.66675 17.357 7.15491 17.8452C7.64306 18.3333 8.42875 18.3333 10.0001 18.3333C11.5714 18.3333 12.3571 18.3333 12.8452 17.8452C13.3334 17.357 13.3334 16.5713 13.3334 15V10.8333M6.66675 10.8333C4.3685 10.3226 2.55606 8.55725 1.98506 6.27323L1.66675 5M13.3334 10.8333C14.759 10.8333 15.9589 11.9003 16.1255 13.3163L16.6667 17.9167" stroke="#4D4D4D" stroke-width="1.5" stroke-linecap="round"/>
<path d="M10.0001 8.33335C11.841 8.33335 13.3334 6.84097 13.3334 5.00002C13.3334 3.15907 11.841 1.66669 10.0001 1.66669C8.15913 1.66669 6.66675 3.15907 6.66675 5.00002C6.66675 6.84097 8.15913 8.33335 10.0001 8.33335Z" stroke="#4D4D4D" stroke-width="1.5"/>
</svg>
