<svg width="22" height="12" viewBox="0 0 22 12" fill="none" xmlns="http://www.w3.org/2000/svg">
<path d="M1.68955 0.70451C1.52638 0.32379 1.08547 0.14742 0.704755 0.31059C0.324035 0.47376 0.147664 0.914671 0.310834 1.29539L1.68955 0.70451ZM8.04164 7.73765C8.26755 7.39055 8.16923 6.92595 7.82204 6.70005C7.47485 6.47415 7.01027 6.57245 6.78436 6.91965L8.04164 7.73765ZM5.37155 9.09095C5.14564 9.43805 5.24396 9.90265 5.59115 10.1285C5.93834 10.3544 6.40292 10.2562 6.62883 9.90895L5.37155 9.09095ZM21.6896 1.29539C21.8527 0.914671 21.6764 0.47376 21.2956 0.31059C20.9149 0.14742 20.474 0.32379 20.3108 0.70451L21.6896 1.29539ZM18.9699 7.15915C19.2628 7.45205 19.7376 7.45205 20.0305 7.15915C20.3234 6.86625 20.3234 6.39135 20.0305 6.09845L18.9699 7.15915ZM10.2502 10.5C10.2502 10.9142 10.586 11.25 11.0002 11.25C11.4144 11.25 11.7502 10.9142 11.7502 10.5H10.2502ZM15.3716 9.90895C15.5975 10.2562 16.0621 10.3544 16.4092 10.1285C16.7564 9.90265 16.8547 9.43805 16.6288 9.09095L15.3716 9.90895ZM4.53052 5.65915C4.82341 5.36625 4.82341 4.89135 4.53052 4.59845C4.23763 4.30555 3.76275 4.30555 3.46986 4.59845L4.53052 5.65915ZM1.96986 6.09845C1.67697 6.39135 1.67697 6.86625 1.96986 7.15915C2.26275 7.45205 2.73763 7.45205 3.03052 7.15915L1.96986 6.09845ZM11.0002 7.24995C7.7763 7.24995 5.46152 5.64455 3.92479 3.98961C3.15664 3.16238 2.59344 2.33279 2.22278 1.71009C2.03788 1.39945 1.90206 1.14227 1.81359 0.965321C1.76938 0.876911 1.73708 0.808701 1.71646 0.764061C1.70616 0.741751 1.69878 0.725351 1.6943 0.715281C1.69206 0.710251 1.69034 0.70632 1.68955 0.70451C1.68953 0.70447 1.68958 0.70459 1.68955 0.70451C1.68965 0.70474 1.68955 0.70451 1.00019 0.99995C0.310834 1.29539 0.310684 1.29505 0.310834 1.29539C0.310894 1.29554 0.311334 1.29655 0.311464 1.29685C0.311714 1.29744 0.312025 1.29815 0.312375 1.29895C0.313065 1.30057 0.313954 1.30261 0.315024 1.30507C0.317174 1.30998 0.320074 1.31657 0.323724 1.32478C0.331024 1.3412 0.341344 1.3641 0.354724 1.39306C0.381464 1.45097 0.420455 1.53315 0.471955 1.63614C0.574885 1.84201 0.728135 2.1317 0.933855 2.47731C1.34444 3.16711 1.96874 4.08755 2.82559 5.01025C4.53886 6.85535 7.22408 8.74995 11.0002 8.74995V7.24995ZM14.3127 6.63075C13.3423 7.01275 12.2419 7.24995 11.0002 7.24995V8.74995C12.4384 8.74995 13.7248 8.47415 14.8621 8.02655L14.3127 6.63075ZM6.78436 6.91965L5.37155 9.09095L6.62883 9.90895L8.04164 7.73765L6.78436 6.91965ZM21.0002 0.99995C20.3108 0.70451 20.3107 0.70465 20.3108 0.70451C20.3109 0.70435 20.3113 0.70344 20.3113 0.70355C20.3112 0.70375 20.3109 0.704471 20.3103 0.705711C20.3092 0.70818 20.3072 0.712701 20.3043 0.719191C20.2985 0.732181 20.2891 0.75304 20.276 0.7812C20.2497 0.83752 20.2088 0.9229 20.1528 1.03262C20.0408 1.25222 19.8692 1.56826 19.6356 1.94315C19.1671 2.69511 18.4565 3.67192 17.4869 4.58195L18.5135 5.67565C19.6025 4.65345 20.3919 3.56582 20.9087 2.73641C21.1678 2.32063 21.3602 1.96675 21.4891 1.7141C21.5535 1.5877 21.6022 1.48638 21.6355 1.41502C21.6521 1.37934 21.6649 1.35113 21.6739 1.33099C21.6784 1.32092 21.682 1.31287 21.6846 1.30691C21.6859 1.30393 21.6869 1.30148 21.6878 1.29955C21.6882 1.29859 21.6885 1.29776 21.6888 1.29707C21.689 1.29672 21.6895 1.29567 21.6896 1.29539C21.6896 1.29546 21.6897 1.29525 21.6896 1.29539C21.6897 1.29522 21.6896 1.29539 21.0002 0.99995ZM17.4869 4.58195C16.6279 5.38815 15.5741 6.13425 14.3127 6.63075L14.8621 8.02655C16.3357 7.44655 17.5468 6.58295 18.5135 5.67565L17.4869 4.58195ZM17.4699 5.65915L18.9699 7.15915L20.0305 6.09845L18.5305 4.59845L17.4699 5.65915ZM10.2502 7.99995V10.5H11.7502V7.99995H10.2502ZM13.9588 7.73765L15.3716 9.90895L16.6288 9.09095L15.216 6.91965L13.9588 7.73765ZM3.46986 4.59845L1.96986 6.09845L3.03052 7.15915L4.53052 5.65915L3.46986 4.59845Z" fill="#4D4D4D" fill-opacity="0.5"/>
</svg>
