<svg width="50" height="50" viewBox="0 0 50 50" fill="none" xmlns="http://www.w3.org/2000/svg">
<path d="M38.2256 5.34999L38.0506 14.825C38.0256 16.125 38.8507 17.85 39.9007 18.625L46.1007 23.325C50.0757 26.325 49.4257 30 44.6757 31.5L36.6007 34.025C35.2507 34.45 33.8257 35.925 33.4757 37.3L31.5507 44.65C30.0257 50.45 26.2256 51.025 23.0756 45.925L18.6756 38.8C17.8756 37.5 15.9756 36.525 14.4756 36.6L6.12569 37.025C0.150693 37.325 -1.54933 33.875 2.35067 29.325L7.30062 23.575C8.22562 22.5 8.65061 20.5 8.22561 19.15L5.70074 11.075C4.22574 6.32497 6.8757 3.7 11.6007 5.25L18.9757 7.67501C20.2257 8.07501 22.1007 7.79998 23.1507 7.02498L30.8507 1.47498C35.0007 -1.52502 38.3256 0.224987 38.2256 5.34999Z" fill="#EEA628"/>
<path opacity="0.4" d="M48.6008 46.175L41.0258 38.6C40.3008 37.875 39.1008 37.875 38.3758 38.6C37.6508 39.325 37.6508 40.525 38.3758 41.25L45.9509 48.825C46.3259 49.2 46.8008 49.375 47.2758 49.375C47.7508 49.375 48.2258 49.2 48.6008 48.825C49.3258 48.1 49.3258 46.9 48.6008 46.175Z" fill="#EEA628"/>
</svg>
