<svg width="42" height="42" viewBox="0 0 42 42" fill="none" xmlns="http://www.w3.org/2000/svg">
<path opacity="0.4" d="M20.8333 41.6667C32.3393 41.6667 41.6667 32.3393 41.6667 20.8333C41.6667 9.3274 32.3393 0 20.8333 0C9.3274 0 0 9.3274 0 20.8333C0 32.3393 9.3274 41.6667 20.8333 41.6667Z" fill="#EEA628"/>
<path d="M20.834 10.2708C16.5215 10.2708 13.0215 13.7708 13.0215 18.0833C13.0215 22.3125 16.334 25.75 20.7298 25.875C20.7923 25.875 20.8757 25.875 20.9173 25.875C20.959 25.875 21.0215 25.875 21.0632 25.875C21.084 25.875 21.1048 25.875 21.1048 25.875C25.3132 25.7291 28.6257 22.3125 28.6465 18.0833C28.6465 13.7708 25.1465 10.2708 20.834 10.2708Z" fill="#EEA628"/>
<path d="M34.959 36.1458C31.2507 39.5625 26.2923 41.6667 20.834 41.6667C15.3757 41.6667 10.4173 39.5625 6.70898 36.1458C7.20898 34.25 8.56315 32.5208 10.5423 31.1875C16.2298 27.3958 25.4798 27.3958 31.1257 31.1875C33.1257 32.5208 34.459 34.25 34.959 36.1458Z" fill="#EEA628"/>
</svg>
