<svg width="20" height="20" viewBox="0 0 20 20" fill="none" xmlns="http://www.w3.org/2000/svg">
<path d="M8.1521 2.91637C9.33625 2.36121 10.6633 2.36121 11.8475 2.91637L17.4235 5.53053C18.6364 6.09916 18.6364 8.06754 17.4235 8.63617L11.8476 11.2503C10.6634 11.8054 9.33634 11.8054 8.15218 11.2503L2.57617 8.63617C1.36328 8.06751 1.36329 6.09912 2.57617 5.53049L8.1521 2.91637Z" stroke="#4D4D4D"/>
<path d="M1.6665 7.08325V11.6666" stroke="#4D4D4D" stroke-linecap="round"/>
<path d="M15.8332 9.58325V13.8544C15.8332 14.6944 15.4136 15.4809 14.6788 15.8879C13.4551 16.5655 11.4965 17.4999 9.99984 17.4999C8.50317 17.4999 6.54459 16.5655 5.32095 15.8879C4.58609 15.4809 4.1665 14.6944 4.1665 13.8544V9.58325" stroke="#4D4D4D" stroke-linecap="round"/>
</svg>
