<svg width="34" height="34" viewBox="0 0 34 34" fill="none" xmlns="http://www.w3.org/2000/svg">
<path opacity="0.4" d="M12 9.00001V24.9833C12 30.3333 15.3333 33.6667 20.6667 33.6667H24.9833C30.3167 33.6667 33.65 30.3333 33.65 25V9.00001C33.6667 3.66668 30.3333 0.333344 25 0.333344H20.6667C15.3333 0.333344 12 3.66668 12 9.00001Z" fill="#EEA628"/>
<path d="M17.7163 10.5334L23.2997 16.1167C23.783 16.6 23.783 17.4 23.2997 17.8834L17.7163 23.4667C17.233 23.95 16.433 23.95 15.9497 23.4667C15.4663 22.9834 15.4663 22.1834 15.9497 21.7L19.3997 18.25H1.58301C0.899675 18.25 0.333008 17.6834 0.333008 17C0.333008 16.3167 0.899675 15.75 1.58301 15.75H19.3997L15.9497 12.3C15.6997 12.05 15.583 11.7334 15.583 11.4167C15.583 11.1 15.6997 10.7834 15.9497 10.5334C16.433 10.0334 17.2163 10.0334 17.7163 10.5334Z" fill="#EEA628"/>
</svg>
