<svg width="7" height="12" viewBox="0 0 7 12" fill="none" xmlns="http://www.w3.org/2000/svg">
<path d="M1.33285 11.8334C1.13814 11.8337 0.94944 11.7659 0.799513 11.6417C0.715131 11.5717 0.64538 11.4858 0.594253 11.3889C0.543127 11.2919 0.51163 11.1858 0.501566 11.0767C0.491503 10.9675 0.503072 10.8575 0.535609 10.7528C0.568146 10.6481 0.621012 10.5509 0.69118 10.4667L4.42451 6.00003L0.824514 1.52503C0.755292 1.43979 0.703599 1.34171 0.672406 1.23643C0.641213 1.13115 0.631135 1.02074 0.642751 0.911547C0.654367 0.802356 0.687447 0.696538 0.740092 0.600174C0.792737 0.50381 0.863908 0.418801 0.949514 0.350032C1.03574 0.274168 1.13671 0.216945 1.24609 0.181954C1.35548 0.146963 1.47091 0.13496 1.58516 0.146698C1.6994 0.158435 1.80999 0.19366 1.90997 0.250161C2.00996 0.306663 2.09719 0.383221 2.16618 0.475032L6.19118 5.47503C6.31375 5.62414 6.38075 5.81118 6.38075 6.0042C6.38075 6.19722 6.31375 6.38425 6.19118 6.53337L2.02451 11.5334C1.94092 11.6342 1.83472 11.7139 1.71455 11.7661C1.59437 11.8182 1.4636 11.8412 1.33285 11.8334Z" fill="#231F20"/>
</svg>
