<svg width="34" height="34" viewBox="0 0 34 34" fill="none" xmlns="http://www.w3.org/2000/svg">
<path opacity="0.4" d="M28.6663 12C28.6663 14.4167 27.9497 16.6334 26.7163 18.4834C24.9163 21.15 22.0663 23.0333 18.7497 23.5167C18.183 23.6167 17.5997 23.6667 16.9997 23.6667C16.3997 23.6667 15.8163 23.6167 15.2497 23.5167C11.933 23.0333 9.08301 21.15 7.28301 18.4834C6.04967 16.6334 5.33301 14.4167 5.33301 12C5.33301 5.55001 10.5497 0.333344 16.9997 0.333344C23.4497 0.333344 28.6663 5.55001 28.6663 12Z" fill="#EEA628"/>
<path d="M32.4165 27.7833L29.6665 28.4333C29.0498 28.5833 28.5665 29.05 28.4331 29.6667L27.8498 32.1167C27.5331 33.45 25.8331 33.85 24.9498 32.8L16.9998 23.6667L9.04981 32.8167C8.16647 33.8667 6.46647 33.4667 6.14981 32.1333L5.56647 29.6833C5.41647 29.0667 4.93314 28.5833 4.33314 28.45L1.58314 27.8C0.316472 27.5 -0.133528 25.9167 0.783139 25L7.28314 18.5C9.08314 21.1667 11.9331 23.05 15.2498 23.5334C15.8165 23.6334 16.3998 23.6834 16.9998 23.6834C17.5998 23.6834 18.1831 23.6334 18.7498 23.5334C22.0665 23.05 24.9165 21.1667 26.7165 18.5L33.2165 25C34.1331 25.9 33.6831 27.4833 32.4165 27.7833Z" fill="#EEA628"/>
<path d="M17.9663 6.96669L18.9496 8.93334C19.083 9.20001 19.433 9.46668 19.7496 9.51669L21.533 9.81667C22.6663 10 22.933 10.8333 22.1163 11.65L20.733 13.0333C20.4996 13.2667 20.3663 13.7167 20.4496 14.05L20.8496 15.7667C21.1663 17.1167 20.4496 17.65 19.2496 16.9333L17.583 15.95C17.283 15.7667 16.783 15.7667 16.483 15.95L14.8163 16.9333C13.6163 17.6333 12.8996 17.1167 13.2163 15.7667L13.6163 14.05C13.683 13.7334 13.5663 13.2667 13.333 13.0333L11.9496 11.65C11.133 10.8333 11.3996 10.0167 12.533 9.81667L14.3163 9.51669C14.6163 9.46668 14.9663 9.20001 15.0996 8.93334L16.083 6.96669C16.5663 5.90002 17.433 5.90002 17.9663 6.96669Z" fill="#EEA628"/>
</svg>
