<svg width="24" height="26" viewBox="0 0 24 26" fill="none" xmlns="http://www.w3.org/2000/svg">
<path d="M12.0069 12.735C15.2765 12.735 17.9416 9.82257 17.9416 6.27819C17.9416 2.76129 15.3039 0 12.0069 0C8.75097 0 6.0721 2.81627 6.0721 6.30568C6.08581 9.83635 8.75097 12.735 12.0069 12.735ZM12.0069 10.6606C10.0011 10.6606 8.28387 8.73726 8.28387 6.30568C8.28387 3.9153 9.97368 2.07444 12.0069 2.07444C14.0676 2.07444 15.7298 3.88781 15.7298 6.27819C15.7298 8.70983 14.0401 10.6606 12.0069 10.6606ZM3.3795 25.4425H20.6343C22.9147 25.4425 24 24.7557 24 23.2445C24 19.6451 19.4665 14.4385 12.0069 14.4385C4.54723 14.4385 0 19.6451 0 23.2445C0 24.7557 1.08526 25.4425 3.3795 25.4425ZM2.72003 23.3681C2.36289 23.3681 2.21178 23.2719 2.21178 22.9834C2.21178 20.7305 5.70118 16.5129 12.0069 16.5129C18.3125 16.5129 21.7882 20.7305 21.7882 22.9834C21.7882 23.2719 21.6508 23.3681 21.2937 23.3681H2.72003Z" fill="#1F1F1F"/>
</svg>
