<svg width="34" height="34" viewBox="0 0 34 34" fill="none" xmlns="http://www.w3.org/2000/svg">
<path d="M28.666 10.3333C31.4274 10.3333 33.666 8.09477 33.666 5.33334C33.666 2.57192 31.4274 0.333344 28.666 0.333344C25.9046 0.333344 23.666 2.57192 23.666 5.33334C23.666 8.09477 25.9046 10.3333 28.666 10.3333Z" fill="#EEA628"/>
<path opacity="0.4" d="M28.6663 12.8333C24.533 12.8333 21.1663 9.46667 21.1663 5.33333C21.1663 4.13333 21.483 3.01667 21.983 2H9.53301C3.78301 2 0.333008 5.43333 0.333008 11.2V24.45C0.333008 30.2333 3.78301 33.6667 9.53301 33.6667H22.783C28.5497 33.6667 31.983 30.2333 31.983 24.4667V12.0167C30.983 12.5167 29.8663 12.8333 28.6663 12.8333Z" fill="#EEA628"/>
<path d="M16.5833 20.3333H8.25C7.56667 20.3333 7 19.7667 7 19.0833C7 18.4 7.56667 17.8333 8.25 17.8333H16.5833C17.2667 17.8333 17.8333 18.4 17.8333 19.0833C17.8333 19.7667 17.2667 20.3333 16.5833 20.3333Z" fill="#EEA628"/>
<path d="M23.25 27H8.25C7.56667 27 7 26.4333 7 25.75C7 25.0667 7.56667 24.5 8.25 24.5H23.25C23.9333 24.5 24.5 25.0667 24.5 25.75C24.5 26.4333 23.9333 27 23.25 27Z" fill="#EEA628"/>
</svg>
