<svg width="12" height="12" viewBox="0 0 12 12" fill="none" xmlns="http://www.w3.org/2000/svg">
<path d="M1.63744 7.64785C1.21248 7.09575 1 6.8197 1 6C1 5.1803 1.21248 4.90427 1.63744 4.35217C2.48598 3.24978 3.90905 2 6 2C8.09095 2 9.514 3.24978 10.3625 4.35217C10.7875 4.90427 11 5.1803 11 6C11 6.8197 10.7875 7.09575 10.3625 7.64785C9.514 8.7502 8.09095 10 6 10C3.90905 10 2.48598 8.7502 1.63744 7.64785Z" stroke="#4D4D4D"/>
<path d="M7.5 6C7.5 6.82845 6.82845 7.5 6 7.5C5.17155 7.5 4.5 6.82845 4.5 6C4.5 5.17155 5.17155 4.5 6 4.5C6.82845 4.5 7.5 5.17155 7.5 6Z" stroke="#4D4D4D"/>
</svg>
