<svg width="28" height="25" viewBox="0 0 28 25" fill="none" xmlns="http://www.w3.org/2000/svg">
<path d="M24 12.4167C24 17.1307 24 19.4878 22.5355 20.9522C21.0711 22.4167 18.714 22.4167 14 22.4167C9.28595 22.4167 6.92893 22.4167 5.46447 20.9522C4 19.4878 4 17.1307 4 12.4167C4 7.7027 4 5.34568 5.46447 3.88122C6.92893 2.41675 9.28595 2.41675 14 2.41675" stroke="#1F1F1F" stroke-width="1.5" stroke-linecap="round"/>
<path d="M18.8467 3.8509L21.5969 5.89387C23.4901 7.3002 24.4366 8.00337 24.4366 8.91663C24.4366 9.82989 23.4901 10.533 21.5969 11.9393L18.8467 13.9823C18.0143 14.6007 17.598 14.9099 17.257 14.7764C16.916 14.6429 16.916 14.1708 16.916 13.2266V11.7023C13.416 11.7023 9.62435 13.0952 8.16602 15.4166C8.16602 7.98806 13.3511 6.13091 16.916 6.13091V4.60659C16.916 3.66237 16.916 3.19026 17.257 3.05678C17.598 2.92331 18.0143 3.2325 18.8467 3.8509Z" stroke="#1F1F1F" stroke-width="1.5" stroke-linecap="round" stroke-linejoin="round"/>
</svg>
