<svg width="20" height="20" viewBox="0 0 20 20" fill="none" xmlns="http://www.w3.org/2000/svg">
<path d="M18.3332 18.3333H1.6665" stroke="#4D4D4D" stroke-linecap="round"/>
<path d="M14.1668 18.3334V5.00008C14.1668 3.42873 14.1668 2.64306 13.6787 2.15491C13.1905 1.66675 12.4048 1.66675 10.8335 1.66675H9.16683C7.59548 1.66675 6.8098 1.66675 6.32165 2.15491C5.8335 2.64306 5.8335 3.42873 5.8335 5.00008V18.3334" stroke="#4D4D4D"/>
<path d="M17.5002 18.3334V9.58342C17.5002 8.413 17.5002 7.82784 17.2192 7.40746C17.0977 7.22548 16.9414 7.06923 16.7594 6.94763C16.3391 6.66675 15.7539 6.66675 14.5835 6.66675" stroke="#4D4D4D"/>
<path d="M2.5 18.3334V9.58342C2.5 8.413 2.5 7.82784 2.78088 7.40746C2.90248 7.22548 3.05873 7.06923 3.24072 6.94763C3.66109 6.66675 4.24628 6.66675 5.41667 6.66675" stroke="#4D4D4D"/>
<path d="M10 18.3333V15.8333" stroke="#4D4D4D" stroke-linecap="round"/>
<path d="M8.3335 4.16675H11.6668" stroke="#4D4D4D" stroke-linecap="round"/>
<path d="M8.3335 6.66675H11.6668" stroke="#4D4D4D" stroke-linecap="round"/>
<path d="M8.3335 9.16675H11.6668" stroke="#4D4D4D" stroke-linecap="round"/>
<path d="M8.3335 11.6667H11.6668" stroke="#4D4D4D" stroke-linecap="round"/>
</svg>
