<svg width="20" height="20" viewBox="0 0 20 20" fill="none" xmlns="http://www.w3.org/2000/svg">
<path d="M13.3333 3.33496C15.1458 3.34505 16.1274 3.42543 16.7677 4.06574C17.5 4.79798 17.5 5.97649 17.5 8.3335V13.3335C17.5 15.6905 17.5 16.8691 16.7677 17.6013C16.0355 18.3335 14.857 18.3335 12.5 18.3335H7.5C5.14297 18.3335 3.96447 18.3335 3.23223 17.6013C2.5 16.8691 2.5 15.6905 2.5 13.3335V8.3335C2.5 5.97649 2.5 4.79798 3.23223 4.06574C3.87255 3.42543 4.85414 3.34505 6.66667 3.33496" stroke="#4D4D4D"/>
<path d="M8.75 11.6667H14.1667" stroke="#4D4D4D" stroke-linecap="round"/>
<path d="M5.8335 11.6667H6.25016" stroke="#4D4D4D" stroke-linecap="round"/>
<path d="M5.8335 8.75H6.25016" stroke="#4D4D4D" stroke-linecap="round"/>
<path d="M5.8335 14.5833H6.25016" stroke="#4D4D4D" stroke-linecap="round"/>
<path d="M8.75 8.75H14.1667" stroke="#4D4D4D" stroke-linecap="round"/>
<path d="M8.75 14.5833H14.1667" stroke="#4D4D4D" stroke-linecap="round"/>
<path d="M6.6665 2.91675C6.6665 2.22639 7.22615 1.66675 7.9165 1.66675H12.0832C12.7735 1.66675 13.3332 2.22639 13.3332 2.91675V3.75008C13.3332 4.44044 12.7735 5.00008 12.0832 5.00008H7.9165C7.22615 5.00008 6.6665 4.44044 6.6665 3.75008V2.91675Z" stroke="#4D4D4D"/>
</svg>
