<svg width="26" height="20" viewBox="0 0 26 20" fill="none" xmlns="http://www.w3.org/2000/svg">
<path d="M1 4.0001C1 2.67461 2.07452 1.6001 3.4 1.6001H22.6C23.9255 1.6001 25 2.67461 25 4.0001V16.0001C25 17.3256 23.9255 18.4001 22.6 18.4001H3.4C2.07452 18.4001 1 17.3256 1 16.0001V4.0001Z" stroke="#1F1F1F" stroke-width="2" stroke-linecap="round" stroke-linejoin="round"/>
<path d="M13.0004 13.5999C14.9886 13.5999 16.6004 11.9881 16.6004 9.9999C16.6004 8.01168 14.9886 6.3999 13.0004 6.3999C11.0122 6.3999 9.40039 8.01168 9.40039 9.9999C9.40039 11.9881 11.0122 13.5999 13.0004 13.5999Z" stroke="#1F1F1F" stroke-width="2" stroke-linecap="round" stroke-linejoin="round"/>
<path d="M1 6.4001C3.65097 6.4001 5.8 4.25107 5.8 1.6001" stroke="#1F1F1F" stroke-width="2" stroke-linecap="round" stroke-linejoin="round"/>
<path d="M20.1992 18.4001C20.1992 15.7492 22.3483 13.6001 24.9992 13.6001" stroke="#1F1F1F" stroke-width="2" stroke-linecap="round" stroke-linejoin="round"/>
</svg>
