<svg width="48" height="52" viewBox="0 0 48 52" fill="none" xmlns="http://www.w3.org/2000/svg">
<path d="M23 25C29.9036 25 35.5 19.4036 35.5 12.5C35.5 5.59644 29.9036 0 23 0C16.0964 0 10.5 5.59644 10.5 12.5C10.5 19.4036 16.0964 25 23 25Z" fill="#EEA628"/>
<path opacity="0.4" d="M23.0005 31.25C10.4755 31.25 0.275391 39.65 0.275391 50C0.275391 50.7 0.825391 51.25 1.52539 51.25H44.4755C45.1755 51.25 45.7255 50.7 45.7255 50C45.7255 39.65 35.5255 31.25 23.0005 31.25Z" fill="#EEA628"/>
<path d="M46.5756 31.8501C44.3256 29.6001 42.5506 30.3251 41.0256 31.8501L32.1755 40.7002C31.8255 41.0502 31.5006 41.7001 31.4256 42.1751L30.9506 45.55C30.7756 46.775 31.6256 47.6251 32.8506 47.4501L36.2255 46.975C36.7005 46.9 37.3756 46.5751 37.7006 46.2251L46.5505 37.3751C48.1005 35.8751 48.8256 34.1001 46.5756 31.8501Z" fill="#EEA628"/>
</svg>
